# xmcd CD database file
#
# Track frame offsets:
#	150
#	22761
#	53692
#	60180
#	101265
#	120669
#	145838
#	159491
#	168565
#	193998
#
# Disc length: 2957 seconds
#
# Revision: 0
# Processed by: cddbd v1.5.2PL0 Copyright (c) Steve Scherf et al.
# Submitted via: CDex 1.70beta2
#
DISCID=780b8b0a
DTITLE=Kari Ikonen Trio - Beauteous Tales and Offbeat Stories
DYEAR=2014
DGENRE=Jazz
TTITLE0=L'avant-midi d'une elfe
TTITLE1=Astri Pes
TTITLE2=Kärhämä
TTITLE3=Septentrional
TTITLE4=Veritulppaani
TTITLE5=Countdown
TTITLE6=Verhotango
TTITLE7=Yöläiset
TTITLE8=Poorab Disa Se
TTITLE9=The 4th Part of the Harbour Trilogy
EXTD=YEAR: 2014
EXTT0=
EXTT1=
EXTT2=
EXTT3=
EXTT4=
EXTT5=
EXTT6=
EXTT7=
EXTT8=
EXTT9=
PLAYORDER=
